<svg xmlns:xlink="http://www.w3.org/1999/xlink" class="logo-desktop" data-name="Layer 1" xmlns="http://www.w3.org/2000/svg" width="164.66" height="117.15" viewBox="0 0 164.66 117.15">
  <path d="M7.58,111.65H5.4v6h1v-2H7.58a2,2,0,1,0,0-3.94Zm0,3H6.37v-2.08H7.58a1,1,0,0,1,0,2.08Zm10-1.08a1.91,1.91,0,0,0-1.91-1.93H13.35v6h1v-2.18h1.15l1.25,2.18h1.06l-1.34-2.33A1.89,1.89,0,0,0,17.63,113.58Zm-1.91,1H14.33v-2h1.39a1,1,0,0,1,.93,1A1,1,0,0,1,15.72,114.58Zm8.51-3a3.11,3.11,0,1,0,3.07,3.11A3.07,3.07,0,0,0,24.23,111.54Zm0,5.25a2.15,2.15,0,1,1,2.1-2.14A2.07,2.07,0,0,1,24.23,116.79Zm8.94-5.14H31v6h1v-2h1.21a2,2,0,0,0,0-3.94Zm0,3H32v-2.08h1.21a1,1,0,0,1,0,2.08Zm6.74,2h2.62v.94H38.94v-6h3.55v.94H39.91v1.56h2.37v.93H39.91Zm10.75-3.12a1.91,1.91,0,0,0-1.91-1.93H46.38v6h1v-2.18h1.15l1.25,2.18h1.07l-1.35-2.33A1.89,1.89,0,0,0,50.66,113.58Zm-1.91,1H47.36v-2h1.39a1,1,0,0,1,.93,1A1,1,0,0,1,48.75,114.58Zm5.18-2.93h4.31v.94H56.58v5h-1v-5H53.93Zm11.44,0h1.11l-2.07,3.61v2.38h-1v-2.38l-2.06-3.61h1.1l1.45,2.65Zm14.41,0h1v6h-1v-4.27l-1.8,3h-.12l-1.8-3v4.28h-1v-6h1l1.78,3Zm6.78,0-2.15,6h1.06l.42-1.21h2.52l.41,1.21h1.05l-2.14-6Zm-.35,3.86.94-2.7.94,2.7ZM97,111.65h1v6h-.76l-2.79-4.06v4.06h-1v-6h.76L97,115.71Zm6.55,0-2.15,6h1.06l.41-1.21h2.52l.42,1.21h1l-2.14-6Zm-.36,3.86.94-2.7.94,2.7Zm9.68-1h3V115a2.72,2.72,0,0,1-2.9,2.8,3.11,3.11,0,1,1,0-6.21,3,3,0,0,1,2.58,1.42l-.84.49a2,2,0,0,0-1.74-1,2.15,2.15,0,1,0,.06,4.29,1.78,1.78,0,0,0,1.91-1.37h-2Zm7.79,2.16h2.62v.94h-3.6v-6h3.56v.94h-2.58v1.56H123v.93h-2.36Zm11.1-5h1v6h-1v-4.27l-1.8,3h-.12l-1.8-3v4.28h-1v-6h1l1.78,3Zm6.16,5h2.62v.94H137v-6h3.55v.94h-2.57v1.56h2.36v.93h-2.36Zm10-5h1v6h-.76l-2.79-4.06v4.06h-1v-6h.76l2.79,4.06Zm4.65,0h4.32v.94h-1.67v5h-1v-5h-1.68ZM12.52,88.52l.07,2.06L.43,91,0,79.26l1.84-.06.35,9.7,3.58-.13-.29-8.21,1.86-.07.3,8.21Zm1.53-22L2.46,62.85,6.08,51.62l1.74.56-3,9.28,3.1,1,2.52-7.82,1.74.56L9.66,63l3.28,1,3-9.45,1.74.55ZM23.81,44l-9.6-7.48,7.28-9.3,1.44,1.12-6,7.69,2.57,2,5.06-6.47L26,32.72l-5.06,6.46,2.71,2.12,6.12-7.82,1.44,1.12Zm17-17.73L34.31,16l1.75-1.1,5.53,8.71,7.5-4.74,1,1.56ZM61.65,16,58.21,4.32l2-.58L63.63,15.4ZM79.1,12.79l-2,0L77.35.6l2.2,0,8.83,9.41L88.57.83l2,0L90.33,13l-1.82,0L79.3,3.21Zm27.35-2.25c-1.15,2.83.21,5.08,3.41,6.38,2,.81,3.76.94,5.1,0l.53-1.29-4.65-1.9.68-1.66L118,14.72l-1.46,3.57c-1.7,1.24-4.4,1.54-7.46.29-4.39-1.79-6.1-5.12-4.58-8.83s5.07-4.9,9.43-3.11a8.14,8.14,0,0,1,4.82,4.57l-2,.49a5.53,5.53,0,0,0-3.47-3.37C110.13,7.05,107.61,7.71,106.45,10.54Zm31.87,30.25-1.26-1.63,9.63-7.43L148,33.36Zm23.42,19.75-11.43,4.22-.63-1.71,5.74-12.13-9,3.33-.69-1.87,11.43-4.22.76,2.06-5.54,11.64,8.67-3.2Zm2.86,19.79-9.46,8.76,9.24.23,0,2L152.15,91l0-1.82L162,80.06l-9.6-.24,0-2,12.18.3ZM96.79,48.41a.74.74,0,0,0-.46-.39.79.79,0,0,0-.6.09l-9.36,5.76-5.1-6.6a.75.75,0,0,0-.91-.22L67.19,53.17a.73.73,0,0,0-.43.68v3.64H59.28a.75.75,0,0,0-.75.75V77a.74.74,0,0,0,.75.75h47.13a.75.75,0,0,0,.75-.75v-7.7a.76.76,0,0,0-.08-.33ZM68.26,54.32l12.18-5.66,4.65,6-4.6,2.83H68.26ZM81.34,76.07H78.09V70.49h3.25Zm9.84,0H82.84V69.74a.74.74,0,0,0-.75-.75H77.34a.75.75,0,0,0-.75.75v6.33H68.26V59H80.7a.74.74,0,0,0,.39-.11l4.92-3,5.17,6.68ZM60,59h6.73V76.22H60Zm45.63,17.23h-13V62.27a.78.78,0,0,0-.16-.46l-5.23-6.75,8.53-5.25,9.84,19.64Z" transform="translate(0 -0.6)" style="" fill="#AA462A"></path>
</svg>